Coordinates
version=1
nRows=19
nColumns=33
inDegrees=yes

Units are S.I. units (second, meters, Newtons, ...)
Angles are in degrees.

endheader
time	ground_thorax_rot_x	ground_thorax_rot_y	ground_thorax_rot_z	ground_thorax_tx	ground_thorax_ty	ground_thorax_tz	clav_prot_r	clav_elev_r	scapula_abduction_r	scapula_elevation_r	scapula_upward_rot_r	scapula_winging_r	shoulder_elv_r	plane_of_elev_r	axial_rot_r	elbow_flexion_r	pro_sup_r	wrist_flex_r	wrist_dev_r	clav_prot_l	clav_elev_l	scapula_abduction_l	scapula_elevation_l	scapula_upward_rot_l	scapula_winging_l	shoulder_elv_l	plane_of_elev_l	axial_rot_l	elbow_flexion_l	pro_sup_l	wrist_flex_l	wrist_dev_l
      3.03000000	     37.16486587	      7.89330452	     15.07834020	   -206.42749683	    818.43697687	     -3.17268068	     16.07915267	     38.13894248	     40.68690901	     45.00000000	    -45.00000000	   2073.21782767	  -2268.06927123	    146.84264308	   -128.99574716	   1825.02420763	    151.79908193	     12.50401626	      4.89205312	     10.51787503	    -45.00000000	    -39.15027095	     45.00000000	    -39.53356083	   -982.69857797	  -1005.76118253	     24.26509533	    -17.50308195	   1447.18158286	     24.85659641	      7.62279991	    -22.75752228
      3.04000000	     37.20764384	      7.80691829	     14.97112753	   -204.40333340	    818.62989092	     -3.20158768	     16.18976152	     38.21273246	     40.92721639	     45.00000000	    -45.00000000	   2073.22380218	  -2268.01315775	    146.73243201	   -129.52890448	   1825.05764303	    152.73530445	     12.41717955	      4.89919981	     10.50943375	    -45.00000000	    -39.39600971	     45.00000000	    -38.83946241	   -982.75963528	  -1005.75584257	     24.21954455	    -17.57353276	   1447.25686684	     24.45919868	      7.74711383	    -22.72929035
      3.05000000	     37.22430840	      7.72285652	     14.86894704	   -202.25881783	    818.80205684	     -3.21118602	     16.38656051	     38.31803512	     41.13745753	     45.00000000	    -45.00000000	   2073.31074645	  -2267.94057282	    146.61099421	   -130.05588011	   1825.08419194	    153.87314152	     12.32043187	      4.90946855	     10.41279266	    -45.00000000	    -39.61741218	     45.00000000	    -38.05685518	   -982.82683548	  -1005.76788789	     24.12933724	    -17.61190560	   1447.34150460	     23.98141250	      7.91947072	    -22.70475039
      3.06000000	     37.26295669	      7.69237260	     14.78768795	   -199.99080511	    818.95041207	     -3.20119886	     16.45727417	     38.34185467	     41.35107839	     45.00000000	    -45.00000000	   2073.35900444	  -2267.85448963	    146.48450168	   -130.56706864	   1825.08458470	    155.15025127	     12.21514137	      4.93593938	     10.40361762	    -45.00000000	    -39.80999665	     45.00000000	    -37.36352873	   -982.90935631	  -1005.79758647	     24.10785835	    -17.72980273	   1447.38217441	     23.47971769	      8.08985131	    -22.65034725
      3.07000000	     37.28614931	      7.75792230	     14.75018921	   -197.59308673	    819.07031902	     -3.17186427	     16.04061150	     38.10913064	     41.51221075	     45.00000000	    -45.00000000	   2073.31847323	  -2267.84247647	    146.30994473	   -131.08810041	   1825.10748270	    156.38646650	     12.10325505	      4.96514289	     10.67449670	    -45.00000000	    -40.00599578	     45.00000000	    -36.96059757	   -983.00108053	  -1005.85440481	     24.24420372	    -17.93729324	   1447.36661051	     23.05729395	      8.27185411	    -22.57742290
      3.08000000	     37.28400110	      7.63630505	     14.64819399	   -195.06345352	    819.15368001	     -3.12368430	     16.66872434	     38.44182466	     41.82654202	     45.00000000	    -45.00000000	   2073.51630212	  -2267.75855563	    146.27077761	   -131.49670413	   1825.16069236	    158.02606657	     11.95971261	      4.99108999	     10.27378114	    -45.00000000	    -40.27373635	     45.00000000	    -35.76443436	   -983.04363950	  -1005.85354387	     23.98605002	    -17.89042554	   1447.52418906	     22.45991715	      8.50903936	    -22.54999220
      3.09000000	     37.35415591	      7.63986645	     14.49799868	   -192.39908737	    819.19314666	     -3.05821318	     15.75725708	     38.21143136	     41.94045680	     45.00000000	    -44.48403986	   2073.44370394	  -2267.78558385	    146.11430898	   -131.76959863	   1825.11489067	    159.34811282	     11.89421501	      4.86005144	     10.78948137	    -45.00000000	    -40.45743367	     45.00000000	    -35.34233252	   -983.16859747	  -1005.97236845	     24.22888338	    -18.15858992	   1447.41611294	     22.09298983	      8.66103684	    -22.42079291
      3.10000000	     37.42032419	      7.50947643	     14.20529102	   -189.59468078	    819.17551153	     -2.97674081	     16.49763128	     38.70489070	     42.18451829	     45.00000000	    -43.96623114	   2073.52344576	  -2267.84684083	    146.10826507	   -131.84616189	   1825.14853851	    161.01039211	     11.74546361	      4.83576500	     10.31773137	    -45.00000000	    -40.85655501	     45.00000000	    -34.14412214	   -983.34476186	  -1005.96241143	     24.01129856	    -17.94748372	   1447.62676836	     21.55671959	      8.86652565	    -22.37636195
      3.11000000	     37.49431395	      7.36493664	     13.96738680	   -186.64078430	    819.08791688	     -2.88390738	     16.71474654	     38.92307792	     42.39884012	     45.00000000	    -43.26091896	   2073.61618312	  -2267.95404130	    146.11587564	   -131.97345193	   1825.11200436	    162.90635165	     11.60417631	      4.80266113	     10.18190749	    -45.00000000	    -41.08787083	     45.00000000	    -33.01046744	   -983.49521724	  -1006.12607984	     23.94415094	    -17.90759056	   1447.59750581	     21.10585449	      9.14676122	    -22.29001822
      3.12000000	     37.56964315	      7.30319673	     13.71356680	   -183.53996121	    818.91746527	     -2.78279004	     16.63255988	     39.12850528	     42.52782831	     45.00000000	    -42.37849450	   2073.69391445	  -2268.08122608	    146.15302946	   -131.97573974	   1825.07781348	    164.76232756	     11.47295276	      4.68160871	     10.15993165	    -45.00000000	    -41.39092920	     45.00000000	    -32.08631809	   -983.67307034	  -1006.23106829	     23.92900929	    -17.84974501	   1447.65949875	     20.71967985	      9.35895135	    -22.19240568
      3.13000000	     37.65982606	      7.20042057	     13.42401799	   -180.26472870	    818.63947341	     -2.69236690	     16.77194585	     39.36237280	     42.78644157	     45.00000000	    -41.58764172	   2073.70943493	  -2268.27979306	    146.13792603	   -132.13329478	   1825.00576288	    166.64167903	     11.33342956	      4.55756431	     10.05610117	    -45.00000000	    -41.65518036	     45.00000000	    -30.99962616	   -983.83498040	  -1006.36209361	     23.92957965	    -17.76716976	   1447.65959196	     20.40659865	      9.59438718	    -22.09115921
      3.14000000	     37.75342407	      7.16519951	     13.17779827	   -176.82562876	    818.24987464	     -2.60721529	     16.74460148	     39.54561655	     42.96273028	     45.00000000	    -40.74473200	   2073.82479439	  -2268.44918072	    146.17849590	   -132.44786832	   1824.89493288	    168.38873795	     11.20196788	      4.36995506	     10.00608670	    -45.00000000	    -41.95724313	     45.00000000	    -30.05878630	   -984.03783739	  -1006.54877295	     23.90866316	    -17.69521622	   1447.66021100	     20.19256455	      9.82982046	    -21.98981813
      3.15000000	     37.84570808	      7.10845496	     12.88425894	   -173.23936928	    817.74654998	     -2.51982626	     16.83413888	     39.77918172	     43.19320116	     45.00000000	    -39.93495840	   2073.89268526	  -2268.65353799	    146.19342570	   -132.85966227	   1824.80035943	    169.99995801	     11.06918997	      4.14670865	      9.91452395	    -45.00000000	    -42.23840452	     45.00000000	    -28.95915212	   -984.20974609	  -1006.69791568	     23.91054923	    -17.61163579	   1447.69783570	     20.06468250	     10.03300106	    -21.89366749
      3.16000000	     37.94717309	      6.98471835	     12.54739590	   -169.54727334	    817.14316263	     -2.40629375	     16.96237204	     39.95980446	     43.48826304	     45.00000000	    -39.08555521	   2074.00777553	  -2268.88617790	    146.24905069	   -133.24498384	   1824.70917681	    171.56249108	     10.93109249	      3.96556631	      9.78604737	    -45.00000000	    -42.51919716	     45.00000000	    -27.76149802	   -984.36523669	  -1006.91825709	     23.93652509	    -17.54857784	   1447.64151761	     20.05699133	     10.29304032	    -21.79765552
      3.17000000	     38.06273143	      6.96759542	     12.25429876	   -165.75785345	    816.43884539	     -2.26793990	     16.90713746	     40.22435827	     43.72677463	     45.00000000	    -38.21543824	   2074.05025832	  -2269.11139677	    146.24569823	   -133.40378229	   1824.58944591	    172.90857308	     10.82425045	      3.71633208	      9.75746001	    -45.00000000	    -42.87084242	     45.00000000	    -26.75341189	   -984.57648633	  -1007.13400932	     23.90408718	    -17.36573529	   1447.69507023	     20.11600943	     10.42253579	    -21.69943520
      3.18000000	     38.16237620	      6.91532079	     11.91626667	   -161.89656996	    815.64440808	     -2.09449033	     16.97707661	     40.42817416	     43.96934593	     45.00000000	    -37.44122038	   2074.15113233	  -2269.31473520	    146.25164152	   -133.52745413	   1824.51581095	    174.28080759	     10.70476695	      3.56125135	      9.67243222	    -45.00000000	    -43.21415744	     45.00000000	    -25.67021287	   -984.77510776	  -1007.34515098	     23.92380619	    -17.21081346	   1447.67471276	     20.29772164	     10.61157964	    -21.61219918
      3.19000000	     38.30159457	      6.86955417	     11.50985937	   -157.96179637	    814.75686251	     -1.89798584	     17.06367991	     40.63386365	     44.21843964	     45.00000000	    -36.66031729	   2074.22133780	  -2269.49933929	    146.26228372	   -133.47906213	   1824.40899657	    175.70324781	     10.59467168	      3.43887995	      9.58150783	    -45.00000000	    -43.59235532	     45.00000000	    -24.54637067	   -985.00159046	  -1007.60834036	     23.94928139	    -17.05281358	   1447.64765379	     20.58663021	     10.79471026	    -21.53519927
      3.20000000	     38.40527307	      6.76120021	     11.15075053	   -153.95425491	    813.77608732	     -1.69050348	     17.19426695	     40.73262309	     44.54690759	     45.00000000	    -36.05397420	   2074.40932603	  -2269.64689568	    146.28515596	   -133.64015680	   1824.33984235	    177.32089143	     10.46908601	      3.36004128	      9.49086352	    -45.00000000	    -43.93862611	     45.00000000	    -23.42721537	   -985.14408421	  -1007.85485723	     23.98870470	    -16.89313593	   1447.60848087	     21.02016934	     11.01236078	    -21.48506931
      3.21000000	     38.50397049	      6.86352595	     10.87423917	   -149.85610804	    812.69420702	     -1.49626393	     17.02481775	     41.09889395	     44.74857160	     45.00000000	    -35.40708706	   2074.38858714	  -2269.93750747	    146.15204117	   -133.17822902	   1824.21023069	    178.47654039	     10.40694095	      3.11843779	      9.55142210	    -45.00000000	    -44.37098617	     45.00000000	    -22.72574201	   -985.46818570	  -1007.99073088	     23.90852375	    -16.61236111	   1447.68821087	     21.39384709	     10.93419257	    -21.39873216
